<svg width="110" height="111" viewBox="0 0 110 111" fill="none" xmlns="http://www.w3.org/2000/svg">
<g clip-path="url(#clip0_18_17)">
<path d="M55.3553 0.722902C25.1733 0.715644 0.700314 25.1771 0.693056 55.3591C0.685798 85.541 25.1473 110.014 55.3292 110.021C85.5112 110.029 109.984 85.5671 109.991 55.3851C109.991 55.3809 109.991 55.3764 109.991 55.3721C109.991 25.1953 85.5321 0.73016 55.3553 0.722902Z" fill="white"/>
<path d="M32.5783 32.595H41.6866V78.1359H32.5783V32.595Z" fill="#F5255D"/>
<path d="M50.7946 69.028H78.1192V78.1362H50.7946V69.028Z" fill="#F5255D"/>
<path d="M50.7946 50.8113H78.1192V59.9196H50.7946V50.8113Z" fill="#F5255D"/>
<path d="M50.7946 32.595H78.1192V41.7032H50.7946V32.595Z" fill="#F5255D"/>
</g>
<defs>
<clipPath id="clip0_18_17">
<rect width="109.298" height="109.298" fill="white" transform="translate(0.693054 0.7229)"/>
</clipPath>
</defs>
</svg>
