<svg width="119" height="119" viewBox="0 0 119 119" fill="none" xmlns="http://www.w3.org/2000/svg">
<circle cx="59.3301" cy="59.3068" r="59.3068" fill="white"/>
<path d="M59.3329 4.47595C29.0964 4.47595 4.49923 29.0712 4.49923 59.3045C4.49923 89.5401 29.0975 114.138 59.3318 114.138C89.5649 114.138 114.161 89.5401 114.161 59.3045C114.162 29.0723 89.566 4.47595 59.3329 4.47595ZM10.0326 59.3045C10.0326 52.159 11.5652 45.3723 14.3012 39.2432L37.8181 103.673C21.374 95.6806 10.0326 78.8178 10.0326 59.3045ZM59.3329 108.606C54.4935 108.606 49.8227 107.896 45.406 106.597L60.1967 63.6174L75.3531 105.131C75.4511 105.376 75.5707 105.6 75.7041 105.81C70.5797 107.613 65.0737 108.606 59.3329 108.606ZM66.1255 36.1917C69.0927 36.0356 71.7694 35.7222 71.7694 35.7222C74.4244 35.4077 74.1133 31.5051 71.4537 31.6612C71.4537 31.6612 63.4693 32.2868 58.3131 32.2868C53.4702 32.2868 45.3274 31.6612 45.3274 31.6612C42.6701 31.5051 42.3601 35.5661 45.0163 35.7222C45.0163 35.7222 47.5323 36.0356 50.1862 36.1917L57.8664 57.2364L47.0776 89.5914L29.1283 36.1928C32.1001 36.0379 34.7711 35.7234 34.7711 35.7234C37.4261 35.41 37.1127 31.5051 34.4543 31.6646C34.4543 31.6646 26.4733 32.2902 21.3159 32.2902C20.3895 32.2902 19.299 32.2663 18.1436 32.2309C26.9564 18.8457 42.1106 10.0092 59.3329 10.0092C72.1693 10.0092 83.8537 14.9157 92.6233 22.95C92.4102 22.9386 92.204 22.9101 91.9829 22.9101C87.1423 22.9101 83.7056 27.1284 83.7056 31.6601C83.7056 35.7211 86.0473 39.16 88.5462 43.221C90.4229 46.5049 92.6107 50.7244 92.6107 56.8171C92.6107 61.0376 90.9904 65.9328 88.8584 72.7536L83.9415 89.1857L66.1255 36.1917ZM84.1158 101.918L99.1742 58.3815C101.99 51.3499 102.923 45.7267 102.923 40.7233C102.923 38.9104 102.805 37.2252 102.59 35.6539C106.442 42.6764 108.633 50.7358 108.631 59.3068C108.63 77.4926 98.7709 93.3721 84.1158 101.918Z" fill="#23282D"/>
</svg>
