<svg width="131" height="131" viewBox="0 0 131 131" fill="none" xmlns="http://www.w3.org/2000/svg">
<circle cx="65.5" cy="65.5" r="65.5" fill="#FAFF00"/>
<path d="M35.5591 50.0222C34.0679 51.1814 30.433 84.2071 35.5 112H44.5L97 110.5L103.137 81.0304C98.4991 65.4711 94.8589 57.7798 87.3296 45.0957C85.2078 45.3174 84.0359 45.1779 81.9609 44.5161C77.3089 41.4028 74.3977 40.2242 70.1139 38.306C65.5689 49.9846 63.3439 57.0127 60.2714 70.8875C54.7281 61.9274 52.2328 55.5464 49.4508 40.4465C45.977 42.5392 43.8163 45.1285 40.8014 47.7038C38.658 48.2618 37.0504 48.863 35.5591 50.0222Z" fill="#0E1C6E"/>
<path d="M90.6104 84.7979C89.0647 91.785 88.8752 95.8823 89.1191 103.345C85.8916 94.2991 84.1107 89.2075 80.4696 80.4509C82.3489 77.1244 82.9723 73.9886 83.7504 67.41C86.9181 72.7685 88.4888 76.379 90.6104 84.7979Z" fill="#FAFF00" stroke="#1754C7" stroke-linecap="round" stroke-linejoin="round"/>
<path d="M44.4637 110.59C45.3315 97.2838 45.6879 95.2575 45.5734 80.4508C45.015 73.1778 43.6974 69.9944 40.8012 64.8018M44.4637 110.59L97.4702 109.43C99.2365 100.265 100.515 94.3026 103.137 81.0304C97.844 63.5162 94.1596 56.5319 87.3294 45.0957C85.2077 45.3175 84.0357 45.1779 81.9608 44.5162C77.3087 41.4028 74.3976 40.2242 70.1138 38.3061M44.4637 110.59L35.8143 110.59C30.7473 82.7971 34.0677 51.1814 35.559 50.0223C37.0503 48.8631 38.6579 48.2619 40.8012 47.7039C43.8162 45.1285 45.9768 42.5393 49.4507 40.4466M49.4507 40.4466C51.0103 40.198 53.423 37.4109 53.7096 36.6915C53.7096 36.6915 53.6935 34.6602 52.8149 33.5228M49.4507 40.4466C52.2327 55.5464 54.728 61.9274 60.2713 70.8876C63.3438 57.0127 65.5688 49.9847 70.1138 38.3061M70.1138 38.3061C69.4277 38.0672 66.406 37.5328 65.64 37.2711C65.119 37.2621 63.7012 34.1837 64.825 33.5044M67.9426 63.6427H70.4121M77.5702 63.6427H75.7807M70.4121 63.6427V59.5855H71.9034M70.4121 63.6427H71.9034M71.9034 59.5855V63.6427M71.9034 59.5855H75.7807V63.6427M71.9034 63.6427H75.7807M89.119 103.345C88.8751 95.8823 89.0646 91.785 90.6103 84.7978C88.4887 76.3789 86.918 72.7685 83.7503 67.41C82.9721 73.9886 82.3488 77.1244 80.4695 80.4508C84.1106 89.2074 85.8915 94.2991 89.119 103.345ZM56.7905 10.0309C59.0891 9.84263 64.4333 10.4263 67.4215 14.2669C67.6005 14.4819 67.8018 14.783 67.9961 15.1596C68.7373 16.5963 69.3762 19.131 68.2835 22.174C68.8581 22.9271 69.6051 24.998 67.9961 27.2572C67.5173 29.0457 65.8699 33.1311 63.1116 35.1643C61.7708 36.2939 58.1697 37.8753 54.4919 35.1643C53.2469 34.223 50.5843 31.3802 49.8948 27.5396C49.1286 26.5041 47.941 23.9814 49.3201 22.174C48.8604 20.7433 48.5662 18.6953 48.9375 16.6803C49.4945 13.6573 51.5494 10.7087 56.7905 10.0309Z" stroke="#FAFF00" stroke-width="3" stroke-linecap="round" stroke-linejoin="round"/>
<path d="M49.4509 40.4466C51.0105 40.198 53.4232 37.4108 53.7098 36.6914C53.7098 36.6914 53.6937 34.6602 52.815 33.5227C56.5714 37.9068 60.9091 37.4029 64.5622 33.7722C64.6271 33.6629 64.7136 33.5718 64.8251 33.5043C64.7379 33.5954 64.6503 33.6847 64.5622 33.7722C63.974 34.7647 65.1709 37.263 65.6401 37.271C66.4062 37.5327 69.4278 38.0672 70.114 38.306C65.5689 49.9846 63.3439 57.0127 60.2715 70.8875C54.7282 61.9274 52.2329 55.5464 49.4509 40.4466Z" fill="#FAFF00"/>
<path d="M67.4215 14.2669C64.4334 10.4263 59.0892 9.84263 56.7906 10.0309C51.5495 10.7087 49.4946 13.6573 48.9376 16.6803C48.5663 18.6953 48.8605 20.7433 49.3202 22.174C47.941 23.9814 49.1286 26.5041 49.8948 27.5396C50.5844 31.3802 53.2469 34.223 54.492 35.1643C58.1697 37.8753 61.7709 36.2939 63.1117 35.1643C65.87 33.1311 67.5173 29.0457 67.9962 27.2572C69.6052 24.998 68.8582 22.9271 68.2835 22.174C69.3762 19.131 68.7374 16.5963 67.9962 15.1596C67.8019 14.783 67.6006 14.4819 67.4215 14.2669Z" fill="#FAFF00"/>
<path d="M35.8144 110.59C30.7474 82.7971 34.0678 51.1814 35.5591 50.0223C37.0504 48.8631 38.658 48.2619 40.8013 47.7039C43.8163 45.1285 45.9769 42.5393 49.4508 40.4466M97.4702 109.43C99.2366 100.265 100.515 94.3026 103.137 81.0304C97.8441 63.5162 94.1596 56.5319 87.3295 45.0957C85.2078 45.3175 84.0358 45.1779 81.9608 44.5162C77.3088 41.4028 74.3977 40.2242 70.1139 38.3061M44.4637 110.59C45.3316 97.2838 45.6879 95.2575 45.5734 80.4508C45.015 73.1778 43.6974 69.9944 40.8013 64.8018M49.4508 40.4466C51.0104 40.198 53.4231 37.4109 53.7097 36.6915C53.7097 36.6915 53.6936 34.6602 52.8149 33.5228M49.4508 40.4466C52.2328 55.5464 54.7281 61.9274 60.2714 70.8876C63.3438 57.0127 65.5688 49.9847 70.1139 38.3061M70.1139 38.3061C69.4277 38.0672 66.4061 37.5328 65.64 37.2711C65.1191 37.2621 63.7013 34.1837 64.825 33.5044M67.9427 63.6427H70.4121M77.5703 63.6427H75.7808M70.4121 63.6427V59.5855H71.9034M70.4121 63.6427H71.9034M71.9034 59.5855V63.6427M71.9034 59.5855H75.7808V63.6427M71.9034 63.6427H75.7808M89.119 103.345C88.8752 95.8823 89.0646 91.785 90.6103 84.7978C88.4888 76.3789 86.9181 72.7685 83.7504 67.41C82.9722 73.9886 82.3488 77.1244 80.4696 80.4508C84.1107 89.2074 85.8915 94.2991 89.119 103.345ZM56.7906 10.0309C59.0892 9.84263 64.4334 10.4263 67.4215 14.2669C67.6006 14.4819 67.8019 14.783 67.9962 15.1596C68.7374 16.5963 69.3762 19.131 68.2835 22.174C68.8582 22.9271 69.6052 24.998 67.9962 27.2572C67.5173 29.0457 65.87 33.1311 63.1117 35.1643C61.7709 36.2939 58.1697 37.8753 54.492 35.1643C53.2469 34.223 50.5844 31.3802 49.8948 27.5396C49.1286 26.5041 47.941 23.9814 49.3202 22.174C48.8605 20.7433 48.5663 18.6953 48.9376 16.6803C49.4946 13.6573 51.5495 10.7087 56.7906 10.0309Z" stroke="#1754C7" stroke-linecap="round" stroke-linejoin="round"/>
<path d="M56.8742 55.0161L57.2987 56.8089L58.1475 60.3946C58.4411 61.1026 58.6285 61.1188 58.9964 60.3946L62.3918 46.0519L59.873 43.9158L62.3918 40.559C59.3265 41.2823 57.6536 41.267 54.7521 40.559L57.4115 43.9158L54.7521 46.0519L55.6009 49.6376L56.0254 51.4304" stroke="#1754C7" stroke-linecap="round" stroke-linejoin="round"/>
</svg>
