<svg width="534" height="701" viewBox="0 0 534 701" fill="none" xmlns="http://www.w3.org/2000/svg">
<path d="M20 30C20 13.4315 33.4315 9.95004e-06 50 2.2224e-05L69 3.62992e-05H514C525.046 3.62992e-05 534 8.95434 534 20C534 31.0457 525.046 40 514 40H96.5C79.9315 40 66.5 53.4315 66.5 70V396.664C66.5 402.118 65.013 407.469 62.199 412.141L44.301 441.859C41.487 446.531 40 451.882 40 457.336V641.5C40 658.069 53.4315 671.5 70 671.5H479.25C487.396 671.5 494 678.104 494 686.25C494 694.396 487.396 701 479.25 701H40H30C13.4315 701 0 687.569 0 671V455.498C0 451.216 0.916884 446.983 2.68901 443.084L17.311 410.916C19.0831 407.017 20 402.784 20 398.502V30Z" fill="url(#paint0_linear_2_48)"/>
<defs>
<linearGradient id="paint0_linear_2_48" x1="38.25" y1="156" x2="38.25" y2="701.499" gradientUnits="userSpaceOnUse">
<stop offset="0.452608" stop-color="white"/>
<stop offset="0.453361" stop-color="#6C6C6C"/>
<stop offset="0.534306" stop-color="#797979"/>
<stop offset="0.53968" stop-color="#939393"/>
<stop offset="0.597166" stop-color="white"/>
</linearGradient>
</defs>
</svg>
