<svg width="213" height="36" viewBox="0 0 213 36" fill="none" xmlns="http://www.w3.org/2000/svg">
<g clip-path="url(#clip0_6_97)">
<path fill-rule="evenodd" clip-rule="evenodd" d="M163.048 23.139V29.439H161.188C159.88 29.4676 158.575 29.3223 157.305 29.007C156.351 28.778 155.476 28.2962 154.771 27.612C154.096 26.8726 153.626 25.97 153.405 24.993C153.104 23.677 152.965 22.3289 152.992 20.979V7.42505H159.867V20.295C159.858 20.7923 159.894 21.2893 159.975 21.78C160.01 22.0962 160.145 22.3928 160.361 22.626C160.566 22.849 160.843 22.9924 161.143 23.031C161.57 23.1117 162.003 23.1479 162.437 23.139H163.048Z" fill="#F2E500"/>
<path fill-rule="evenodd" clip-rule="evenodd" d="M166.257 7.42505H173.132V29.448H166.257V7.42505Z" fill="#F2E500"/>
<path fill-rule="evenodd" clip-rule="evenodd" d="M183.872 29.4481H177.132V16.92C177.119 15.591 177.335 14.2697 177.77 13.0141C178.158 11.8541 178.769 10.7811 179.567 9.85505C180.374 8.94547 181.363 8.21573 182.47 7.71305C183.69 7.16625 185.016 6.89582 186.353 6.92105C187.676 6.89815 188.989 7.15259 190.208 7.66805C191.292 8.1416 192.256 8.85195 193.03 9.74705C193.819 10.6695 194.409 11.7449 194.765 12.9061C195.162 14.2065 195.359 15.5601 195.349 16.92V17.154H188.572V16.92C188.623 16.125 188.455 15.3312 188.087 14.6251C187.893 14.35 187.629 14.1317 187.322 13.9925C187.016 13.8534 186.678 13.7983 186.344 13.8331C186.008 13.8215 185.674 13.8822 185.364 14.0111C185.054 14.1399 184.775 14.334 184.546 14.5801C184.043 15.2274 183.8 16.0394 183.863 16.857V18.7741H191.053V24.5971H183.863V29.4481H183.872Z" fill="#F2E500"/>
<path fill-rule="evenodd" clip-rule="evenodd" d="M213 16.02V19.962H207.194C206.677 19.9451 206.167 20.083 205.729 20.358C205.544 20.4681 205.392 20.627 205.291 20.8174C205.189 21.0079 205.142 21.2225 205.154 21.438C205.154 22.527 206.053 23.058 207.958 23.058H213V29.448H206.987C204.129 29.448 201.964 28.881 200.49 27.729C199.016 26.577 198.27 24.804 198.27 22.419C198.263 21.6452 198.356 20.8737 198.548 20.124C198.822 19.3328 199.26 18.6088 199.834 18C199.341 17.4721 198.943 16.8632 198.656 16.2C198.417 15.6293 198.286 15.0189 198.27 14.4C198.237 13.279 198.478 12.167 198.971 11.16C199.405 10.3055 200.044 9.57248 200.831 9.02704C201.666 8.46503 202.604 8.07356 203.59 7.87504C204.706 7.62763 205.845 7.50687 206.987 7.51504H213V13.815H207.284C206.722 13.776 206.158 13.8589 205.63 14.058C205.477 14.1393 205.35 14.2633 205.266 14.415C205.181 14.5667 205.143 14.7397 205.154 14.913C205.136 15.0966 205.174 15.2814 205.264 15.4424C205.354 15.6034 205.491 15.7328 205.657 15.813C206.183 16.0325 206.752 16.128 207.32 16.092L213 16.02Z" fill="#F2E500"/>
<path d="M163.048 23.139V29.439H161.188C159.88 29.4676 158.575 29.3223 157.305 29.007C156.351 28.778 155.476 28.2962 154.771 27.612C154.096 26.8726 153.626 25.97 153.405 24.993C153.104 23.677 152.965 22.3289 152.992 20.979V7.42505H159.867V20.295C159.858 20.7923 159.894 21.2893 159.975 21.78C160.01 22.0962 160.145 22.3928 160.361 22.626C160.566 22.849 160.843 22.9924 161.143 23.031C161.57 23.1117 162.003 23.1479 162.437 23.139H163.048Z" fill="#F2E500"/>
<path d="M166.257 7.42505H173.132V29.448H166.257V7.42505Z" fill="#F2E500"/>
<path d="M183.872 29.4481H177.132V16.92C177.119 15.591 177.335 14.2697 177.77 13.0141C178.158 11.8541 178.769 10.7811 179.567 9.85505C180.374 8.94547 181.363 8.21573 182.47 7.71305C183.69 7.16625 185.016 6.89582 186.353 6.92105C187.676 6.89815 188.989 7.15259 190.208 7.66805C191.292 8.1416 192.256 8.85195 193.03 9.74705C193.819 10.6695 194.409 11.7449 194.765 12.9061C195.162 14.2065 195.359 15.5601 195.349 16.92V17.154H188.572V16.92C188.623 16.125 188.455 15.3312 188.087 14.6251C187.893 14.35 187.629 14.1317 187.322 13.9925C187.016 13.8534 186.678 13.7983 186.344 13.8331C186.008 13.8215 185.674 13.8822 185.364 14.0111C185.054 14.1399 184.775 14.334 184.546 14.5801C184.043 15.2274 183.8 16.0394 183.863 16.857V18.7741H191.053V24.5971H183.863V29.4481H183.872Z" fill="#F2E500"/>
<path d="M213 16.02V19.962H207.194C206.677 19.9451 206.167 20.083 205.729 20.358C205.544 20.4681 205.392 20.627 205.291 20.8174C205.189 21.0079 205.142 21.2225 205.154 21.438C205.154 22.527 206.053 23.058 207.958 23.058H213V29.448H206.987C204.129 29.448 201.964 28.881 200.49 27.729C199.016 26.577 198.27 24.804 198.27 22.419C198.263 21.6452 198.356 20.8737 198.548 20.124C198.822 19.3328 199.26 18.6088 199.834 18C199.341 17.4721 198.943 16.8632 198.656 16.2C198.417 15.6293 198.286 15.0189 198.27 14.4C198.237 13.279 198.478 12.167 198.971 11.16C199.405 10.3055 200.044 9.57248 200.831 9.02704C201.666 8.46503 202.604 8.07356 203.59 7.87504C204.706 7.62763 205.845 7.50687 206.987 7.51504H213V13.815H207.284C206.722 13.776 206.158 13.8589 205.63 14.058C205.477 14.1393 205.35 14.2633 205.266 14.415C205.181 14.5667 205.143 14.7397 205.154 14.913C205.136 15.0966 205.174 15.2814 205.264 15.4424C205.354 15.6034 205.491 15.7328 205.657 15.813C206.183 16.0325 206.752 16.128 207.32 16.092L213 16.02Z" fill="#F2E500"/>
<path fill-rule="evenodd" clip-rule="evenodd" d="M18.5768 3.92405C18.1171 4.35548 17.7531 4.87891 17.5085 5.46035C17.2638 6.04178 17.144 6.66824 17.1568 7.29905C17.1555 7.54347 17.1765 7.7875 17.2197 8.02805H12.5823C12.3747 8.02741 12.1705 8.08009 11.9891 8.18105C11.8729 8.22323 11.7666 8.28896 11.6769 8.37413C11.5873 8.4593 11.5161 8.56208 11.4679 8.67605V8.61305L8.08861 13.7431L8.00772 13.9141V13.977C7.639 14.8314 7.43178 15.7469 7.39659 16.6771C7.36 17.0958 7.42602 17.5171 7.5889 17.9045C7.75178 18.2919 8.00661 18.6336 8.33127 18.9001C8.69881 19.2213 9.1264 19.4663 9.58924 19.6208C10.0521 19.7753 10.5409 19.8362 11.0275 19.8001C10.7489 20.4031 10.3444 21.3031 10.2096 21.6001H5.08684C4.82034 21.5916 4.55838 21.6706 4.34089 21.8251C2.92794 22.6671 1.72597 23.8215 0.826839 25.2001C0.548668 25.6888 0.397262 26.2396 0.386459 26.8021C0.398799 27.2329 0.504919 27.6558 0.697405 28.0414C0.889892 28.4269 1.1641 28.7657 1.50089 29.034C1.62115 29.1465 1.76255 29.2338 1.91684 29.291C2.07114 29.3482 2.23525 29.374 2.39962 29.3671H15.1706C15.4395 29.3724 15.7023 29.2868 15.9166 29.1241C16.1201 28.9879 16.2819 28.7979 16.3839 28.5751C16.5097 28.2691 17.1029 26.8651 17.4804 25.9921L20.9046 32.2291C21.0006 32.3732 21.1225 32.4983 21.2641 32.5981C21.4158 32.7071 21.5915 32.778 21.7763 32.8051H21.7494C24.3018 33.4441 26.0633 33.588 27.1418 33.228C27.5405 33.1385 27.9075 32.9422 28.2035 32.66C28.4995 32.3779 28.7135 32.0205 28.8224 31.626V31.689C28.9235 31.4376 28.9724 31.1681 28.9662 30.8971C28.9534 30.3802 28.8341 29.8716 28.6157 29.403V29.34H28.5708L28.5168 29.2591L28.5797 29.3491C28.5797 29.3491 23.7266 20.4751 23.0256 19.2061L23.5199 19.8811C23.6389 20.0648 23.8071 20.2113 24.0052 20.3041C24.1895 20.3946 24.3933 20.4378 24.5984 20.4301H30.3862C30.718 20.4331 31.0389 20.311 31.2849 20.0881C31.8229 19.6578 32.2677 19.1222 32.5922 18.5141C32.9167 17.906 33.1141 17.2381 33.1723 16.5511C33.1767 16.5212 33.1767 16.4909 33.1723 16.4611C33.1766 16.4342 33.1766 16.4069 33.1723 16.3801C33.1269 15.6931 32.9281 15.0252 32.5906 14.4255C32.253 13.8258 31.7853 13.3096 31.222 12.9151C30.9834 12.726 30.6904 12.6187 30.3862 12.6091H27.2406C27.0609 12.3751 25.8386 10.8091 25.56 10.4041C26.2771 9.54757 26.663 8.46161 26.6475 7.34405C26.6582 6.71919 26.5437 6.09852 26.3106 5.51879C26.0775 4.93907 25.7305 4.41209 25.2904 3.96905L25.1646 3.80705C24.2888 2.97796 23.1252 2.52282 21.9201 2.53805C21.3019 2.52816 20.6882 2.64614 20.1176 2.88463C19.547 3.12312 19.0316 3.47697 18.6038 3.92405H18.5768Z" fill="black"/>
<path fill-rule="evenodd" clip-rule="evenodd" d="M21.9023 2.16005C21.231 2.15831 20.5657 2.28667 19.9431 2.53805C19.3279 2.79913 18.7716 3.18175 18.3074 3.66305C17.8175 4.1238 17.4292 4.68212 17.1676 5.30212C16.906 5.92212 16.7769 6.59008 16.7885 7.26305V7.60505H12.5825C12.314 7.60523 12.0504 7.67666 11.8185 7.81205C11.5295 7.9229 11.2923 8.13798 11.1535 8.41505L7.77424 13.5L7.69335 13.653V13.707V13.761C7.25864 14.7309 7.04379 15.7852 7.06424 16.848C7.08525 17.2925 7.1985 17.7278 7.39677 18.126C7.54497 18.5171 7.78187 18.8683 8.0888 19.152C8.74466 19.7427 9.58873 20.0808 10.4704 20.106L9.99411 21.141H5.07804C4.73338 21.1299 4.39489 21.2344 4.11639 21.438C2.65171 22.3378 1.41996 23.5713 0.521454 25.038C0.115836 25.733 -0.0395979 26.5462 0.0810739 27.342C0.239116 28.1205 0.661487 28.8202 1.27639 29.322C1.4268 29.4667 1.60428 29.5801 1.79862 29.6558C1.99296 29.7315 2.20033 29.7679 2.4088 29.763H15.1618C15.5266 29.7793 15.8857 29.6679 16.1774 29.448C16.447 29.273 16.6594 29.0227 16.7885 28.728L17.5704 26.865L20.5632 32.4C20.6807 32.5823 20.8373 32.7361 21.0216 32.85C21.2026 32.9769 21.4075 33.0657 21.6237 33.111C22.9348 33.4697 24.2829 33.6751 25.6411 33.723C26.1609 33.7331 26.6792 33.6633 27.1779 33.516C27.627 33.407 28.0406 33.1842 28.379 32.869C28.7174 32.5538 28.9692 32.1568 29.1102 31.716C29.2625 31.3643 29.3362 30.9834 29.3259 30.6C29.2621 30.1436 29.135 29.6983 28.9484 29.277L28.8406 29.025V28.98L24.266 20.79H24.5177H30.3145C30.7314 20.7888 31.1349 20.6424 31.4559 20.376C32.822 19.044 33.478 17.775 33.4511 16.479C33.4393 15.7223 33.2531 14.9785 32.907 14.3056C32.5609 13.6328 32.0643 13.0491 31.4559 12.6C31.1495 12.3618 30.7743 12.2292 30.3864 12.222H27.4385L26.0455 10.422C26.6997 9.53795 27.0441 8.46226 27.0251 7.36205C27.0344 6.68121 26.9092 6.00525 26.6566 5.37305C26.4128 4.7515 26.0424 4.18755 25.5692 3.71705L25.3445 3.49205C24.4108 2.62133 23.1781 2.14429 21.9023 2.16005ZM17.5345 7.29905C17.5234 6.71576 17.6372 6.13686 17.8682 5.60128C18.0992 5.0657 18.442 4.58587 18.8736 4.19405C19.2671 3.78119 19.7418 3.45448 20.2678 3.23452C20.7937 3.01456 21.3594 2.90612 21.9293 2.91605C22.5022 2.90514 23.0714 3.01033 23.6027 3.22531C24.134 3.4403 24.6164 3.76062 25.0209 4.16705C25.4258 4.57474 25.745 5.05956 25.9595 5.59288C26.1741 6.12619 26.2797 6.69716 26.2702 7.27205C26.2832 7.83865 26.1844 8.40226 25.9792 8.93048C25.7741 9.45871 25.4668 9.94113 25.0749 10.35L27.0611 12.942H30.3145C30.5391 12.9527 30.7553 13.0311 30.9346 13.167C31.4531 13.5276 31.8839 14.0004 32.195 14.5504C32.5062 15.1003 32.6897 15.7134 32.7321 16.344V16.506C32.6714 17.1473 32.4807 17.7693 32.1716 18.3342C31.8625 18.899 31.4416 19.3947 30.9346 19.791C30.7537 19.9519 30.5205 20.0415 30.2785 20.043H24.5266C24.3804 20.0506 24.2347 20.0196 24.1042 19.953C23.9684 19.8904 23.8531 19.7906 23.7717 19.665L22.5944 18.045L22.2528 18.675V18.738L22.6303 19.422L28.1485 29.43L28.2384 29.583C28.4378 30.0032 28.5509 30.4593 28.5709 30.924C28.5693 31.146 28.5266 31.3657 28.4451 31.572C28.351 31.9051 28.167 32.2056 27.9133 32.4406C27.6595 32.6756 27.346 32.836 27.0072 32.904C26.5832 33.0226 26.144 33.0772 25.704 33.066C24.3966 33.0244 23.0991 32.825 21.8394 32.472C21.714 32.4437 21.595 32.3918 21.4889 32.319C21.3789 32.2442 21.2868 32.1458 21.2193 32.031L17.4266 25.128L16.0336 28.44C15.9576 28.6009 15.8356 28.7356 15.6831 28.827C15.5361 28.9459 15.3506 29.0068 15.1618 28.998H2.36386C2.15703 29.0053 1.95499 28.9347 1.79766 28.8C1.48534 28.5667 1.22947 28.2659 1.049 27.92C0.868535 27.5742 0.768095 27.1921 0.755125 26.802C0.774872 26.3009 0.910221 25.8111 1.15057 25.371C2.01209 24.0165 3.1748 22.8799 4.54778 22.05C4.6972 21.9365 4.8817 21.8792 5.06905 21.888H10.4615L11.2883 20.088V19.998L11.6028 19.305H10.9288C10.4968 19.3422 10.0618 19.292 9.6496 19.1575C9.23738 19.023 8.85636 18.8069 8.52917 18.522C8.23186 18.3006 7.9941 18.0087 7.83723 17.6726C7.68037 17.3364 7.60931 16.9665 7.63044 16.596C7.67063 15.7255 7.8654 14.8691 8.20563 14.067C8.20563 14.013 8.20563 13.968 8.30449 13.887L11.6837 8.78405C11.7172 8.7137 11.7648 8.65101 11.8236 8.59991C11.8823 8.54881 11.951 8.51039 12.0253 8.48705C12.1956 8.39485 12.393 8.36615 12.5825 8.40605H17.7232C17.6257 8.04522 17.5773 7.67285 17.5794 7.29905H17.5345Z" fill="white"/>
<path fill-rule="evenodd" clip-rule="evenodd" d="M22.001 4.80606H21.9021C21.58 4.79916 21.2601 4.86145 20.964 4.98876C20.6679 5.11606 20.4025 5.30541 20.1856 5.54406C19.9438 5.76666 19.7522 6.03834 19.6235 6.34097C19.4949 6.64361 19.4322 6.97023 19.4396 7.29906C19.4286 7.80011 19.5905 8.28963 19.898 8.68506C19.898 8.68506 19.898 8.68506 19.9429 8.68506C19.9809 8.72939 20.014 8.77767 20.0418 8.82906C20.0418 8.82906 20.0867 8.90106 20.1316 8.92806C20.1766 8.95506 20.1316 8.92806 20.1766 8.97306C20.3997 9.20117 20.6671 9.38113 20.9624 9.50186C21.2576 9.62259 21.5743 9.68153 21.8932 9.67506H22.001V4.80606Z" fill="#0FA3D1"/>
<path fill-rule="evenodd" clip-rule="evenodd" d="M22.001 9.75599C22.4432 9.74093 22.8738 9.61064 23.2502 9.37799C23.2502 9.37799 23.2952 9.37799 23.3132 9.37799L23.6816 9.07199C24.1391 8.60657 24.3943 7.97899 24.3916 7.32599C24.4016 7.0017 24.3453 6.6788 24.2263 6.37704C24.1073 6.07528 23.9281 5.801 23.6996 5.57099C23.2432 5.13896 22.6464 4.88648 22.019 4.85999L22.001 9.75599Z" fill="#0FA3D1"/>
<path fill-rule="evenodd" clip-rule="evenodd" d="M16.4379 22.6081L16.492 22.4821L16.4379 22.6081Z" fill="#625D7B"/>
<path d="M21.8033 4.80597C21.9616 4.78782 22.1214 4.78782 22.2796 4.80597C22.2796 4.96797 22.1808 9.71097 22.1808 9.71097C22.0554 9.72687 21.9286 9.72687 21.8033 9.71097C21.7853 9.62097 21.8033 4.80597 21.8033 4.80597Z" fill="#0FA3D1"/>
<path fill-rule="evenodd" clip-rule="evenodd" d="M5.28456 23.85L5.38342 23.769H5.59912V27.108H5.13177L5.28456 23.85Z" fill="#E42221"/>
<path d="M20.581 17.739H14.4516L11.9352 23.238C11.8395 23.3927 11.7077 23.5219 11.5511 23.6144C11.3946 23.7068 11.218 23.7599 11.0365 23.769H5.3924C4.74791 24.2264 4.14627 24.7415 3.59494 25.308C3.25396 25.6365 2.97934 26.0276 2.78607 26.46C2.71446 26.6422 2.71446 26.8448 2.78607 27.027C2.78311 27.0539 2.78311 27.0811 2.78607 27.108H14.5505L16.4289 22.608C16.5045 22.4291 16.6289 22.2752 16.7879 22.1637C16.9468 22.0523 17.1338 21.988 17.3276 21.978C17.4997 21.9864 17.6665 22.0409 17.8103 22.1359C17.9542 22.2309 18.0699 22.3629 18.1454 22.518L20.6709 27.108L22.6751 30.708C23.6111 30.9478 24.5683 31.0955 25.533 31.149C25.8958 31.1805 26.261 31.1313 26.6025 31.005C26.6025 31.005 26.6475 31.005 26.6025 30.87C26.567 30.5207 26.4432 30.1862 26.243 29.898C25.8925 29.304 20.5091 19.53 20.5091 19.53C20.5091 19.53 19.9609 18.774 20.2485 18.243C20.3923 18.072 20.581 17.739 20.581 17.739Z" fill="#F2E500"/>
<path d="M13.0496 10.296H22.6032L24.877 13.203L25.8296 14.454C25.9129 14.5612 26.0173 14.6501 26.1364 14.7151C26.2554 14.7801 26.3866 14.8199 26.5217 14.832H29.9548C30.2736 15.1315 30.5328 15.4888 30.7187 15.885C30.7892 16.013 30.8327 16.1541 30.8466 16.2996C30.8605 16.4451 30.8445 16.5919 30.7996 16.731C30.7099 17.0525 30.5671 17.3567 30.3772 17.631C30.1435 17.937 29.9368 18.162 29.9368 18.162H25.0298L23.3671 15.858C23.2736 15.7006 23.1426 15.5688 22.9857 15.4746C22.8288 15.3803 22.6511 15.3265 22.4684 15.318C22.2785 15.3144 22.0918 15.3672 21.9319 15.4697C21.772 15.5722 21.6459 15.7199 21.5696 15.894L20.581 17.739H14.4517L15.9346 14.526L16.2491 13.842C16.3195 13.6712 16.3416 13.4844 16.313 13.3018C16.2845 13.1193 16.2064 12.9481 16.0873 12.807C15.968 12.6956 15.8256 12.612 15.6702 12.5622C15.5148 12.5124 15.3504 12.4976 15.1886 12.519C15.0349 12.544 14.8902 12.6086 14.7689 12.7064C14.6476 12.8042 14.5538 12.9319 14.4966 13.077L12.5823 17.289C12.165 17.3794 11.7413 17.4366 11.3151 17.46C11.014 17.4768 10.7121 17.4557 10.4163 17.397C10.3534 17.397 9.94 17.307 9.85013 17.118C9.73904 16.9111 9.68623 16.6777 9.69735 16.443C9.71976 16.0209 9.78296 15.6019 9.88608 15.192L9.98494 14.931L13.0496 10.296Z" fill="#0FA3D1"/>
<path fill-rule="evenodd" clip-rule="evenodd" d="M53.25 7.19997V13.761C52.9114 13.6518 52.5662 13.5646 52.2165 13.5C51.9232 13.4196 51.6216 13.3743 51.3177 13.365C50.9654 13.3556 50.6234 13.4849 50.3651 13.725C50.2444 13.8285 50.1474 13.9568 50.0807 14.1013C50.014 14.2457 49.9792 14.4028 49.9786 14.562C49.9885 15.1255 50.1076 15.6818 50.3291 16.2C50.5987 16.839 50.9223 17.505 51.2278 18.189C51.5658 18.8678 51.8658 19.5648 52.1266 20.277C52.3913 20.8979 52.5347 21.5639 52.549 22.239C52.549 24.729 51.8779 26.622 50.5358 27.918C49.2057 29.223 47.2195 29.862 44.5682 29.862C44.267 29.8591 43.9664 29.832 43.6695 29.781C43.346 29.781 42.8427 29.646 42.1776 29.493V22.968C42.5386 23.1051 42.9117 23.2075 43.292 23.274C43.6384 23.344 43.9903 23.3832 44.3435 23.391C44.5179 23.4014 44.6926 23.3756 44.8565 23.3152C45.0204 23.2548 45.1701 23.1611 45.2962 23.04C45.4033 22.9344 45.488 22.8082 45.5451 22.669C45.6023 22.5298 45.6307 22.3805 45.6287 22.23C45.5882 21.7243 45.4477 21.2317 45.2153 20.781L44.3166 18.81C43.993 18.117 43.6875 17.379 43.4179 16.614C43.1955 15.8982 43.1012 15.1486 43.1392 14.4C43.0693 13.3828 43.2017 12.3618 43.5288 11.3962C43.8559 10.4306 44.3711 9.53965 45.0446 8.77497C46.3208 7.48797 48.1901 6.83997 50.6796 6.83997C51.5485 6.84633 52.4127 6.96737 53.25 7.19997Z" fill="#027FC2"/>
<path d="M53.25 7.19997V13.761C52.9114 13.6518 52.5662 13.5646 52.2165 13.5C51.9232 13.4196 51.6216 13.3743 51.3177 13.365C50.9654 13.3556 50.6234 13.4849 50.3651 13.725C50.2444 13.8285 50.1474 13.9568 50.0807 14.1013C50.014 14.2457 49.9792 14.4028 49.9786 14.562C49.9885 15.1255 50.1076 15.6818 50.3291 16.2C50.5987 16.839 50.9223 17.505 51.2278 18.189C51.5658 18.8678 51.8658 19.5648 52.1266 20.277C52.3913 20.8979 52.5347 21.5639 52.549 22.239C52.549 24.729 51.8779 26.622 50.5358 27.918C49.2057 29.223 47.2195 29.862 44.5682 29.862C44.267 29.8591 43.9664 29.832 43.6695 29.781C43.346 29.781 42.8427 29.646 42.1776 29.493V22.968C42.5386 23.1051 42.9117 23.2075 43.292 23.274C43.6384 23.344 43.9903 23.3832 44.3435 23.391C44.5179 23.4014 44.6926 23.3756 44.8565 23.3152C45.0204 23.2548 45.1701 23.1611 45.2962 23.04C45.4033 22.9344 45.488 22.8082 45.5451 22.669C45.6023 22.5298 45.6307 22.3805 45.6287 22.23C45.5882 21.7243 45.4477 21.2317 45.2153 20.781L44.3166 18.81C43.993 18.117 43.6875 17.379 43.4179 16.614C43.1955 15.8982 43.1012 15.1486 43.1392 14.4C43.0693 13.3828 43.2017 12.3618 43.5288 11.3962C43.8559 10.4306 44.3711 9.53965 45.0446 8.77497C46.3208 7.48797 48.1901 6.83997 50.6796 6.83997C51.5485 6.84633 52.4127 6.96737 53.25 7.19997Z" fill="#027FC2"/>
<path fill-rule="evenodd" clip-rule="evenodd" d="M63.6124 23.238V16.848C64.4827 16.8649 65.3511 16.7589 66.1918 16.533C66.4362 16.4476 66.651 16.2936 66.8103 16.0893C66.9697 15.885 67.067 15.6391 67.0905 15.381C67.0896 15.1617 67.036 14.9458 66.9344 14.7516C66.8327 14.5574 66.6859 14.3905 66.5063 14.265C66.0118 13.9324 65.4195 13.777 64.8257 13.824H63.6394V29.448H56.7641V7.42495H64.9515C66.2072 7.41241 67.4579 7.58526 68.6633 7.93795C69.7236 8.23931 70.7155 8.74361 71.5842 9.42295C72.411 10.0769 73.078 10.9111 73.5344 11.862C74.0233 12.9023 74.2634 14.0425 74.2354 15.192C74.2354 17.964 73.4056 19.995 71.746 21.285C70.1013 22.581 66.5692 23.238 63.6124 23.238Z" fill="#027FC2"/>
<path d="M63.6124 23.238V16.848C64.4827 16.8649 65.3511 16.7589 66.1918 16.533C66.4362 16.4476 66.651 16.2936 66.8103 16.0893C66.9697 15.885 67.067 15.6391 67.0905 15.381C67.0896 15.1617 67.036 14.9458 66.9344 14.7516C66.8327 14.5574 66.6859 14.3905 66.5063 14.265C66.0118 13.9324 65.4195 13.777 64.8257 13.824H63.6394V29.448H56.7641V7.42495H64.9515C66.2072 7.41241 67.4579 7.58526 68.6633 7.93795C69.7236 8.23931 70.7155 8.74361 71.5842 9.42295C72.411 10.0769 73.078 10.9111 73.5344 11.862C74.0233 12.9023 74.2634 14.0425 74.2354 15.192C74.2354 17.964 73.4056 19.995 71.746 21.285C70.1013 22.581 66.5692 23.238 63.6124 23.238Z" fill="#027FC2"/>
<path fill-rule="evenodd" clip-rule="evenodd" d="M88.4175 29.979C86.9099 29.9774 85.4183 29.6713 84.0316 29.079C82.6657 28.4987 81.4215 27.665 80.3648 26.622C79.309 25.569 78.456 24.3304 77.8483 22.968C77.226 21.5496 76.9047 20.0172 76.9047 18.468C76.9047 16.9187 77.226 15.3864 77.8483 13.968C78.4536 12.6016 79.3069 11.3595 80.3648 10.305C81.4194 9.25698 82.6639 8.42002 84.0316 7.83897C85.4146 7.23506 86.9087 6.92846 88.4175 6.93897C89.9617 6.92108 91.4925 7.22768 92.9111 7.83897C94.2888 8.41875 95.5381 9.26605 96.587 10.332C98.7437 12.5431 99.9502 15.512 99.9482 18.603C99.9593 20.1226 99.6532 21.6277 99.0495 23.022C98.151 25.0903 96.6686 26.8506 94.7845 28.0866C92.9004 29.3225 90.6968 29.9803 88.4444 29.979H88.4175ZM88.4175 23.49C89.02 23.4912 89.6154 23.359 90.161 23.103C90.7111 22.8594 91.2087 22.5109 91.6259 22.077C92.0395 21.6148 92.3599 21.0769 92.5696 20.493C92.8243 19.852 92.9495 19.1668 92.9381 18.477C92.9455 17.7891 92.8267 17.1058 92.5876 16.461C92.3828 15.8724 92.0721 15.3264 91.6709 14.85C91.2599 14.4076 90.7689 14.0472 90.2239 13.788C89.6617 13.5246 89.0471 13.3923 88.4264 13.401C87.806 13.3948 87.192 13.527 86.629 13.788C86.0867 14.043 85.6009 14.4041 85.2 14.85C84.7855 15.3248 84.4598 15.8705 84.2383 16.461C83.7712 17.7643 83.7712 19.1897 84.2383 20.493C84.4573 21.0805 84.7902 21.6189 85.218 22.077C85.6275 22.5118 86.1194 22.8606 86.6649 23.103C87.2049 23.357 87.7939 23.4891 88.3905 23.49H88.4175Z" fill="#027FC2"/>
<path d="M88.4175 29.979C86.9099 29.9774 85.4183 29.6713 84.0316 29.079C82.6657 28.4987 81.4215 27.665 80.3648 26.622C79.309 25.569 78.456 24.3304 77.8483 22.968C77.226 21.5496 76.9047 20.0172 76.9047 18.468C76.9047 16.9187 77.226 15.3864 77.8483 13.968C78.4536 12.6016 79.3069 11.3595 80.3648 10.305C81.4194 9.25698 82.6639 8.42002 84.0316 7.83897C85.4146 7.23506 86.9087 6.92846 88.4175 6.93897C89.9617 6.92108 91.4925 7.22768 92.9111 7.83897C94.2888 8.41875 95.5381 9.26605 96.587 10.332C98.7437 12.5431 99.9502 15.512 99.9482 18.603C99.9593 20.1226 99.6532 21.6277 99.0495 23.022C98.151 25.0903 96.6686 26.8506 94.7845 28.0866C92.9004 29.3225 90.6968 29.9803 88.4444 29.979H88.4175ZM88.4175 23.49C89.02 23.4912 89.6154 23.359 90.161 23.103C90.7111 22.8594 91.2087 22.5109 91.6259 22.077C92.0395 21.6148 92.3599 21.0769 92.5696 20.493C92.8243 19.852 92.9495 19.1668 92.9381 18.477C92.9455 17.7891 92.8267 17.1058 92.5876 16.461C92.3828 15.8724 92.0721 15.3264 91.6709 14.85C91.2599 14.4076 90.7689 14.0472 90.2239 13.788C89.6617 13.5246 89.0471 13.3923 88.4264 13.401C87.806 13.3948 87.192 13.527 86.629 13.788C86.0867 14.043 85.6009 14.4041 85.2 14.85C84.7855 15.3248 84.4598 15.8705 84.2383 16.461C83.7712 17.7643 83.7712 19.1897 84.2383 20.493C84.4573 21.0805 84.7902 21.6189 85.218 22.077C85.6275 22.5118 86.1194 22.8606 86.6649 23.103C87.2049 23.357 87.7939 23.4891 88.3905 23.49H88.4175Z" fill="#027FC2"/>
<path fill-rule="evenodd" clip-rule="evenodd" d="M110.293 29.4479H103.48V7.42494H111.443C112.651 7.42322 113.856 7.54993 115.038 7.80294C116.099 8.03509 117.109 8.45574 118.022 9.04494C118.869 9.6085 119.561 10.3759 120.035 11.2769C120.558 12.3033 120.812 13.4462 120.772 14.5979C120.769 15.4958 120.617 16.387 120.323 17.2349C120.049 18.1035 119.5 18.8589 118.759 19.3859C119.561 19.946 120.17 20.7416 120.502 21.6629C120.789 22.6937 120.922 23.7612 120.898 24.8309V29.4479H113.924V24.8309C113.993 24.1378 113.839 23.4405 113.483 22.8419C113.284 22.6422 113.042 22.4899 112.776 22.3965C112.51 22.303 112.227 22.2707 111.946 22.3019H110.248V17.3699H111.946C112.201 17.3976 112.458 17.3727 112.702 17.2969C112.946 17.221 113.172 17.0958 113.366 16.9289C113.668 16.5535 113.816 16.0774 113.78 15.5969C113.802 15.3551 113.772 15.1114 113.693 14.8818C113.614 14.6522 113.487 14.4419 113.321 14.2649C112.753 13.9185 112.086 13.7728 111.425 13.8509H110.239V29.4479H110.293Z" fill="#027FC2"/>
<path d="M110.293 29.4479H103.48V7.42494H111.443C112.651 7.42322 113.856 7.54993 115.038 7.80294C116.099 8.03509 117.109 8.45574 118.022 9.04494C118.869 9.6085 119.561 10.3759 120.035 11.2769C120.558 12.3033 120.812 13.4462 120.772 14.5979C120.769 15.4958 120.617 16.387 120.323 17.2349C120.049 18.1035 119.5 18.8589 118.759 19.3859C119.561 19.946 120.17 20.7416 120.502 21.6629C120.789 22.6937 120.922 23.7612 120.898 24.8309V29.4479H113.924V24.8309C113.993 24.1378 113.839 23.4405 113.483 22.8419C113.284 22.6422 113.042 22.4899 112.776 22.3965C112.51 22.303 112.227 22.2707 111.946 22.3019H110.248V17.3699H111.946C112.201 17.3976 112.458 17.3727 112.702 17.2969C112.946 17.221 113.172 17.0958 113.366 16.9289C113.668 16.5535 113.816 16.0774 113.78 15.5969C113.802 15.3551 113.772 15.1114 113.693 14.8818C113.614 14.6522 113.487 14.4419 113.321 14.2649C112.753 13.9185 112.086 13.7728 111.425 13.8509H110.239V29.4479H110.293Z" fill="#027FC2"/>
<path fill-rule="evenodd" clip-rule="evenodd" d="M140.319 7.42505V13.824H135.556V29.448H128.672V13.824H123.917V7.42505H140.319Z" fill="#027FC2"/>
<path d="M140.319 7.42505V13.824H135.556V29.448H128.672V13.824H123.917V7.42505H140.319Z" fill="#027FC2"/>
<path fill-rule="evenodd" clip-rule="evenodd" d="M53.25 7.19997V13.761C52.9114 13.6518 52.5662 13.5646 52.2165 13.5C51.9232 13.4196 51.6216 13.3743 51.3177 13.365C50.9654 13.3556 50.6234 13.4849 50.3651 13.725C50.2444 13.8285 50.1474 13.9568 50.0807 14.1013C50.014 14.2457 49.9792 14.4028 49.9786 14.562C49.9885 15.1255 50.1076 15.6818 50.3291 16.2C50.5987 16.839 50.9223 17.505 51.2278 18.189C51.5658 18.8678 51.8658 19.5648 52.1266 20.277C52.3913 20.8979 52.5347 21.5639 52.549 22.239C52.549 24.729 51.8779 26.622 50.5358 27.918C49.2057 29.223 47.2195 29.862 44.5682 29.862C44.267 29.8591 43.9664 29.832 43.6695 29.781C43.346 29.781 42.8427 29.646 42.1776 29.493V22.968C42.5386 23.1051 42.9117 23.2075 43.292 23.274C43.6384 23.344 43.9903 23.3832 44.3435 23.391C44.5179 23.4014 44.6926 23.3756 44.8565 23.3152C45.0204 23.2548 45.1701 23.1611 45.2962 23.04C45.4033 22.9344 45.488 22.8082 45.5451 22.669C45.6023 22.5298 45.6307 22.3805 45.6287 22.23C45.5882 21.7243 45.4477 21.2317 45.2153 20.781L44.3166 18.81C43.993 18.117 43.6875 17.379 43.4179 16.614C43.1955 15.8982 43.1012 15.1486 43.1392 14.4C43.0693 13.3828 43.2017 12.3618 43.5288 11.3962C43.8559 10.4306 44.3711 9.53965 45.0446 8.77497C46.3208 7.48797 48.1901 6.83997 50.6796 6.83997C51.5485 6.84633 52.4127 6.96737 53.25 7.19997Z" fill="#027FC2"/>
<path d="M53.25 7.19997V13.761C52.9114 13.6518 52.5662 13.5646 52.2165 13.5C51.9232 13.4196 51.6216 13.3743 51.3177 13.365C50.9654 13.3556 50.6234 13.4849 50.3651 13.725C50.2444 13.8285 50.1474 13.9568 50.0807 14.1013C50.014 14.2457 49.9792 14.4028 49.9786 14.562C49.9885 15.1255 50.1076 15.6818 50.3291 16.2C50.5987 16.839 50.9223 17.505 51.2278 18.189C51.5658 18.8678 51.8658 19.5648 52.1266 20.277C52.3913 20.8979 52.5347 21.5639 52.549 22.239C52.549 24.729 51.8779 26.622 50.5358 27.918C49.2057 29.223 47.2195 29.862 44.5682 29.862C44.267 29.8591 43.9664 29.832 43.6695 29.781C43.346 29.781 42.8427 29.646 42.1776 29.493V22.968C42.5386 23.1051 42.9117 23.2075 43.292 23.274C43.6384 23.344 43.9903 23.3832 44.3435 23.391C44.5179 23.4014 44.6926 23.3756 44.8565 23.3152C45.0204 23.2548 45.1701 23.1611 45.2962 23.04C45.4033 22.9344 45.488 22.8082 45.5451 22.669C45.6023 22.5298 45.6307 22.3805 45.6287 22.23C45.5882 21.7243 45.4477 21.2317 45.2153 20.781L44.3166 18.81C43.993 18.117 43.6875 17.379 43.4179 16.614C43.1955 15.8982 43.1012 15.1486 43.1392 14.4C43.0693 13.3828 43.2017 12.3618 43.5288 11.3962C43.8559 10.4306 44.3711 9.53965 45.0446 8.77497C46.3208 7.48797 48.1901 6.83997 50.6796 6.83997C51.5485 6.84633 52.4127 6.96737 53.25 7.19997Z" fill="#027FC2"/>
<path fill-rule="evenodd" clip-rule="evenodd" d="M63.6124 23.238V16.848C64.4827 16.8649 65.3511 16.7589 66.1918 16.533C66.4362 16.4476 66.651 16.2936 66.8103 16.0893C66.9697 15.885 67.067 15.6391 67.0905 15.381C67.0896 15.1617 67.036 14.9458 66.9344 14.7516C66.8327 14.5574 66.6859 14.3905 66.5063 14.265C66.0118 13.9324 65.4195 13.777 64.8257 13.824H63.6394V29.448H56.7641V7.42495H64.9515C66.2072 7.41241 67.4579 7.58526 68.6633 7.93795C69.7236 8.23931 70.7155 8.74361 71.5842 9.42295C72.411 10.0769 73.078 10.9111 73.5344 11.862C74.0233 12.9023 74.2634 14.0425 74.2354 15.192C74.2354 17.964 73.4056 19.995 71.746 21.285C70.1013 22.581 66.5692 23.238 63.6124 23.238Z" fill="#027FC2"/>
<path d="M63.6124 23.238V16.848C64.4827 16.8649 65.3511 16.7589 66.1918 16.533C66.4362 16.4476 66.651 16.2936 66.8103 16.0893C66.9697 15.885 67.067 15.6391 67.0905 15.381C67.0896 15.1617 67.036 14.9458 66.9344 14.7516C66.8327 14.5574 66.6859 14.3905 66.5063 14.265C66.0118 13.9324 65.4195 13.777 64.8257 13.824H63.6394V29.448H56.7641V7.42495H64.9515C66.2072 7.41241 67.4579 7.58526 68.6633 7.93795C69.7236 8.23931 70.7155 8.74361 71.5842 9.42295C72.411 10.0769 73.078 10.9111 73.5344 11.862C74.0233 12.9023 74.2634 14.0425 74.2354 15.192C74.2354 17.964 73.4056 19.995 71.746 21.285C70.1013 22.581 66.5692 23.238 63.6124 23.238Z" fill="#027FC2"/>
<path fill-rule="evenodd" clip-rule="evenodd" d="M88.4175 29.979C86.9099 29.9774 85.4183 29.6713 84.0316 29.079C82.6657 28.4987 81.4215 27.665 80.3648 26.622C79.309 25.569 78.456 24.3304 77.8483 22.968C77.226 21.5496 76.9047 20.0172 76.9047 18.468C76.9047 16.9187 77.226 15.3864 77.8483 13.968C78.4536 12.6016 79.3069 11.3595 80.3648 10.305C81.4194 9.25698 82.6639 8.42002 84.0316 7.83897C85.4146 7.23506 86.9087 6.92846 88.4175 6.93897C89.9617 6.92108 91.4925 7.22768 92.9111 7.83897C94.2888 8.41875 95.5381 9.26605 96.587 10.332C98.7437 12.5431 99.9502 15.512 99.9482 18.603C99.9593 20.1226 99.6532 21.6277 99.0495 23.022C98.151 25.0903 96.6686 26.8506 94.7845 28.0866C92.9004 29.3225 90.6968 29.9803 88.4444 29.979H88.4175ZM88.4175 23.49C89.02 23.4912 89.6154 23.359 90.161 23.103C90.7111 22.8594 91.2087 22.5109 91.6259 22.077C92.0395 21.6148 92.3599 21.0769 92.5696 20.493C92.8243 19.852 92.9495 19.1668 92.9381 18.477C92.9455 17.7891 92.8267 17.1058 92.5876 16.461C92.3828 15.8724 92.0721 15.3264 91.6709 14.85C91.2599 14.4076 90.7689 14.0472 90.2239 13.788C89.6617 13.5246 89.0471 13.3923 88.4264 13.401C87.806 13.3948 87.192 13.527 86.629 13.788C86.0867 14.043 85.6009 14.4041 85.2 14.85C84.7855 15.3248 84.4598 15.8705 84.2383 16.461C83.7712 17.7643 83.7712 19.1897 84.2383 20.493C84.4573 21.0805 84.7902 21.6189 85.218 22.077C85.6275 22.5118 86.1194 22.8606 86.6649 23.103C87.2049 23.357 87.7939 23.4891 88.3905 23.49H88.4175Z" fill="#027FC2"/>
<path d="M88.4175 29.979C86.9099 29.9774 85.4183 29.6713 84.0316 29.079C82.6657 28.4987 81.4215 27.665 80.3648 26.622C79.309 25.569 78.456 24.3304 77.8483 22.968C77.226 21.5496 76.9047 20.0172 76.9047 18.468C76.9047 16.9187 77.226 15.3864 77.8483 13.968C78.4536 12.6016 79.3069 11.3595 80.3648 10.305C81.4194 9.25698 82.6639 8.42002 84.0316 7.83897C85.4146 7.23506 86.9087 6.92846 88.4175 6.93897C89.9617 6.92108 91.4925 7.22768 92.9111 7.83897C94.2888 8.41875 95.5381 9.26605 96.587 10.332C98.7437 12.5431 99.9502 15.512 99.9482 18.603C99.9593 20.1226 99.6532 21.6277 99.0495 23.022C98.151 25.0903 96.6686 26.8506 94.7845 28.0866C92.9004 29.3225 90.6968 29.9803 88.4444 29.979H88.4175ZM88.4175 23.49C89.02 23.4912 89.6154 23.359 90.161 23.103C90.7111 22.8594 91.2087 22.5109 91.6259 22.077C92.0395 21.6148 92.3599 21.0769 92.5696 20.493C92.8243 19.852 92.9495 19.1668 92.9381 18.477C92.9455 17.7891 92.8267 17.1058 92.5876 16.461C92.3828 15.8724 92.0721 15.3264 91.6709 14.85C91.2599 14.4076 90.7689 14.0472 90.2239 13.788C89.6617 13.5246 89.0471 13.3923 88.4264 13.401C87.806 13.3948 87.192 13.527 86.629 13.788C86.0867 14.043 85.6009 14.4041 85.2 14.85C84.7855 15.3248 84.4598 15.8705 84.2383 16.461C83.7712 17.7643 83.7712 19.1897 84.2383 20.493C84.4573 21.0805 84.7902 21.6189 85.218 22.077C85.6275 22.5118 86.1194 22.8606 86.6649 23.103C87.2049 23.357 87.7939 23.4891 88.3905 23.49H88.4175Z" fill="#027FC2"/>
<path fill-rule="evenodd" clip-rule="evenodd" d="M110.293 29.4479H103.48V7.42494H111.443C112.651 7.42322 113.856 7.54993 115.038 7.80294C116.099 8.03509 117.109 8.45574 118.022 9.04494C118.869 9.6085 119.561 10.3759 120.035 11.2769C120.558 12.3033 120.812 13.4462 120.772 14.5979C120.769 15.4958 120.617 16.387 120.323 17.2349C120.049 18.1035 119.5 18.8589 118.759 19.3859C119.561 19.946 120.17 20.7416 120.502 21.6629C120.789 22.6937 120.922 23.7612 120.898 24.8309V29.4479H113.924V24.8309C113.993 24.1378 113.839 23.4405 113.483 22.8419C113.284 22.6422 113.042 22.4899 112.776 22.3965C112.51 22.303 112.227 22.2707 111.946 22.3019H110.248V17.3699H111.946C112.201 17.3976 112.458 17.3727 112.702 17.2969C112.946 17.221 113.172 17.0958 113.366 16.9289C113.668 16.5535 113.816 16.0774 113.78 15.5969C113.802 15.3551 113.772 15.1114 113.693 14.8818C113.614 14.6522 113.487 14.4419 113.321 14.2649C112.753 13.9185 112.086 13.7728 111.425 13.8509H110.239V29.4479H110.293Z" fill="#027FC2"/>
<path d="M110.293 29.4479H103.48V7.42494H111.443C112.651 7.42322 113.856 7.54993 115.038 7.80294C116.099 8.03509 117.109 8.45574 118.022 9.04494C118.869 9.6085 119.561 10.3759 120.035 11.2769C120.558 12.3033 120.812 13.4462 120.772 14.5979C120.769 15.4958 120.617 16.387 120.323 17.2349C120.049 18.1035 119.5 18.8589 118.759 19.3859C119.561 19.946 120.17 20.7416 120.502 21.6629C120.789 22.6937 120.922 23.7612 120.898 24.8309V29.4479H113.924V24.8309C113.993 24.1378 113.839 23.4405 113.483 22.8419C113.284 22.6422 113.042 22.4899 112.776 22.3965C112.51 22.303 112.227 22.2707 111.946 22.3019H110.248V17.3699H111.946C112.201 17.3976 112.458 17.3727 112.702 17.2969C112.946 17.221 113.172 17.0958 113.366 16.9289C113.668 16.5535 113.816 16.0774 113.78 15.5969C113.802 15.3551 113.772 15.1114 113.693 14.8818C113.614 14.6522 113.487 14.4419 113.321 14.2649C112.753 13.9185 112.086 13.7728 111.425 13.8509H110.239V29.4479H110.293Z" fill="#027FC2"/>
<path fill-rule="evenodd" clip-rule="evenodd" d="M140.319 7.42505V13.824H135.556V29.448H128.672V13.824H123.917V7.42505H140.319Z" fill="#027FC2"/>
<path d="M140.319 7.42505V13.824H135.556V29.448H128.672V13.824H123.917V7.42505H140.319Z" fill="#027FC2"/>
<path d="M53.25 7.19997V13.761C52.9114 13.6518 52.5662 13.5646 52.2165 13.5C51.9232 13.4196 51.6216 13.3743 51.3177 13.365C50.9654 13.3556 50.6234 13.4849 50.3651 13.725C50.2444 13.8285 50.1474 13.9568 50.0807 14.1013C50.014 14.2457 49.9792 14.4028 49.9786 14.562C49.9885 15.1255 50.1076 15.6818 50.3291 16.2C50.5987 16.839 50.9223 17.505 51.2278 18.189C51.5658 18.8678 51.8658 19.5648 52.1266 20.277C52.3913 20.8979 52.5347 21.5639 52.549 22.239C52.549 24.729 51.8779 26.622 50.5358 27.918C49.2057 29.223 47.2195 29.862 44.5682 29.862C44.267 29.8591 43.9664 29.832 43.6695 29.781C43.346 29.781 42.8427 29.646 42.1776 29.493V22.968C42.5386 23.1051 42.9117 23.2075 43.292 23.274C43.6384 23.344 43.9903 23.3832 44.3435 23.391C44.5179 23.4014 44.6926 23.3756 44.8565 23.3152C45.0204 23.2548 45.1701 23.1611 45.2962 23.04C45.4033 22.9344 45.488 22.8082 45.5451 22.669C45.6023 22.5298 45.6307 22.3805 45.6287 22.23C45.5882 21.7243 45.4477 21.2317 45.2153 20.781L44.3166 18.81C43.993 18.117 43.6875 17.379 43.4179 16.614C43.1955 15.8982 43.1012 15.1486 43.1392 14.4C43.0693 13.3828 43.2017 12.3618 43.5288 11.3962C43.8559 10.4306 44.3711 9.53965 45.0446 8.77497C46.3208 7.48797 48.1901 6.83997 50.6796 6.83997C51.5485 6.84633 52.4127 6.96737 53.25 7.19997Z" fill="#0FA3D1"/>
<path d="M53.25 7.19997V13.761C52.9114 13.6518 52.5662 13.5646 52.2165 13.5C51.9232 13.4196 51.6216 13.3743 51.3177 13.365C50.9654 13.3556 50.6234 13.4849 50.3651 13.725C50.2444 13.8285 50.1474 13.9568 50.0807 14.1013C50.014 14.2457 49.9792 14.4028 49.9786 14.562C49.9885 15.1255 50.1076 15.6818 50.3291 16.2C50.5987 16.839 50.9223 17.505 51.2278 18.189C51.5658 18.8678 51.8658 19.5648 52.1266 20.277C52.3913 20.8979 52.5347 21.5639 52.549 22.239C52.549 24.729 51.8779 26.622 50.5358 27.918C49.2057 29.223 47.2195 29.862 44.5682 29.862C44.267 29.8591 43.9664 29.832 43.6695 29.781C43.346 29.781 42.8427 29.646 42.1776 29.493V22.968C42.5386 23.1051 42.9117 23.2075 43.292 23.274C43.6384 23.344 43.9903 23.3832 44.3435 23.391C44.5179 23.4014 44.6926 23.3756 44.8565 23.3152C45.0204 23.2548 45.1701 23.1611 45.2962 23.04C45.4033 22.9344 45.488 22.8082 45.5451 22.669C45.6023 22.5298 45.6307 22.3805 45.6287 22.23C45.5882 21.7243 45.4477 21.2317 45.2153 20.781L44.3166 18.81C43.993 18.117 43.6875 17.379 43.4179 16.614C43.1955 15.8982 43.1012 15.1486 43.1392 14.4C43.0693 13.3828 43.2017 12.3618 43.5288 11.3962C43.8559 10.4306 44.3711 9.53965 45.0446 8.77497C46.3208 7.48797 48.1901 6.83997 50.6796 6.83997C51.5485 6.84633 52.4127 6.96737 53.25 7.19997Z" fill="#0FA3D1"/>
<path d="M53.25 7.19997V13.761C52.9114 13.6518 52.5662 13.5646 52.2165 13.5C51.9232 13.4196 51.6216 13.3743 51.3177 13.365C50.9654 13.3556 50.6234 13.4849 50.3651 13.725C50.2444 13.8285 50.1474 13.9568 50.0807 14.1013C50.014 14.2457 49.9792 14.4028 49.9786 14.562C49.9885 15.1255 50.1076 15.6818 50.3291 16.2C50.5987 16.839 50.9223 17.505 51.2278 18.189C51.5658 18.8678 51.8658 19.5648 52.1266 20.277C52.3913 20.8979 52.5347 21.5639 52.549 22.239C52.549 24.729 51.8779 26.622 50.5358 27.918C49.2057 29.223 47.2195 29.862 44.5682 29.862C44.267 29.8591 43.9664 29.832 43.6695 29.781C43.346 29.781 42.8427 29.646 42.1776 29.493V22.968C42.5386 23.1051 42.9117 23.2075 43.292 23.274C43.6384 23.344 43.9903 23.3832 44.3435 23.391C44.5179 23.4014 44.6926 23.3756 44.8565 23.3152C45.0204 23.2548 45.1701 23.1611 45.2962 23.04C45.4033 22.9344 45.488 22.8082 45.5451 22.669C45.6023 22.5298 45.6307 22.3805 45.6287 22.23C45.5882 21.7243 45.4477 21.2317 45.2153 20.781L44.3166 18.81C43.993 18.117 43.6875 17.379 43.4179 16.614C43.1955 15.8982 43.1012 15.1486 43.1392 14.4C43.0693 13.3828 43.2017 12.3618 43.5288 11.3962C43.8559 10.4306 44.3711 9.53965 45.0446 8.77497C46.3208 7.48797 48.1901 6.83997 50.6796 6.83997C51.5485 6.84633 52.4127 6.96737 53.25 7.19997Z" fill="#0FA3D1"/>
<path d="M63.6124 23.238V16.848C64.4827 16.8649 65.3511 16.7589 66.1918 16.533C66.4362 16.4476 66.651 16.2936 66.8103 16.0893C66.9697 15.885 67.067 15.6391 67.0905 15.381C67.0896 15.1617 67.036 14.9458 66.9344 14.7516C66.8327 14.5574 66.6859 14.3905 66.5063 14.265C66.0118 13.9324 65.4195 13.777 64.8257 13.824H63.6394V29.448H56.7641V7.42495H64.9515C66.2072 7.41241 67.4579 7.58526 68.6633 7.93795C69.7236 8.23931 70.7155 8.74361 71.5842 9.42295C72.411 10.0769 73.078 10.9111 73.5344 11.862C74.0233 12.9023 74.2634 14.0425 74.2354 15.192C74.2354 17.964 73.4056 19.995 71.746 21.285C70.1013 22.581 66.5692 23.238 63.6124 23.238Z" fill="#0FA3D1"/>
<path d="M63.6124 23.238V16.848C64.4827 16.8649 65.3511 16.7589 66.1918 16.533C66.4362 16.4476 66.651 16.2936 66.8103 16.0893C66.9697 15.885 67.067 15.6391 67.0905 15.381C67.0896 15.1617 67.036 14.9458 66.9344 14.7516C66.8327 14.5574 66.6859 14.3905 66.5063 14.265C66.0118 13.9324 65.4195 13.777 64.8257 13.824H63.6394V29.448H56.7641V7.42495H64.9515C66.2072 7.41241 67.4579 7.58526 68.6633 7.93795C69.7236 8.23931 70.7155 8.74361 71.5842 9.42295C72.411 10.0769 73.078 10.9111 73.5344 11.862C74.0233 12.9023 74.2634 14.0425 74.2354 15.192C74.2354 17.964 73.4056 19.995 71.746 21.285C70.1013 22.581 66.5692 23.238 63.6124 23.238Z" fill="#0FA3D1"/>
<path d="M63.6124 23.238V16.848C64.4827 16.8649 65.3511 16.7589 66.1918 16.533C66.4362 16.4476 66.651 16.2936 66.8103 16.0893C66.9697 15.885 67.067 15.6391 67.0905 15.381C67.0896 15.1617 67.036 14.9458 66.9344 14.7516C66.8327 14.5574 66.6859 14.3905 66.5063 14.265C66.0118 13.9324 65.4195 13.777 64.8257 13.824H63.6394V29.448H56.7641V7.42495H64.9515C66.2072 7.41241 67.4579 7.58526 68.6633 7.93795C69.7236 8.23931 70.7155 8.74361 71.5842 9.42295C72.411 10.0769 73.078 10.9111 73.5344 11.862C74.0233 12.9023 74.2634 14.0425 74.2354 15.192C74.2354 17.964 73.4056 19.995 71.746 21.285C70.1013 22.581 66.5692 23.238 63.6124 23.238Z" fill="#0FA3D1"/>
<path d="M88.4175 29.979C86.9099 29.9774 85.4183 29.6713 84.0316 29.079C82.6657 28.4987 81.4215 27.665 80.3648 26.622C79.309 25.569 78.456 24.3304 77.8483 22.968C77.226 21.5496 76.9047 20.0172 76.9047 18.468C76.9047 16.9187 77.226 15.3864 77.8483 13.968C78.4536 12.6016 79.3069 11.3595 80.3648 10.305C81.4194 9.25698 82.6639 8.42002 84.0316 7.83897C85.4146 7.23506 86.9087 6.92846 88.4175 6.93897C89.9617 6.92108 91.4925 7.22768 92.9111 7.83897C94.2888 8.41875 95.5381 9.26605 96.587 10.332C98.7437 12.5431 99.9502 15.512 99.9482 18.603C99.9593 20.1226 99.6532 21.6277 99.0495 23.022C98.151 25.0903 96.6686 26.8506 94.7845 28.0866C92.9004 29.3225 90.6968 29.9803 88.4444 29.979H88.4175ZM88.4175 23.49C89.02 23.4912 89.6154 23.359 90.161 23.103C90.7111 22.8594 91.2087 22.5109 91.6259 22.077C92.0395 21.6148 92.3599 21.0769 92.5696 20.493C92.8243 19.852 92.9495 19.1668 92.9381 18.477C92.9455 17.7891 92.8267 17.1058 92.5876 16.461C92.3828 15.8724 92.0721 15.3264 91.6709 14.85C91.2599 14.4076 90.7689 14.0472 90.2239 13.788C89.6617 13.5246 89.0471 13.3923 88.4264 13.401C87.806 13.3948 87.192 13.527 86.629 13.788C86.0867 14.043 85.6009 14.4041 85.2 14.85C84.7855 15.3248 84.4598 15.8705 84.2383 16.461C83.7712 17.7643 83.7712 19.1897 84.2383 20.493C84.4573 21.0805 84.7902 21.6189 85.218 22.077C85.6275 22.5118 86.1194 22.8606 86.6649 23.103C87.2049 23.357 87.7939 23.4891 88.3905 23.49H88.4175Z" fill="#0FA3D1"/>
<path d="M88.4175 29.979C86.9099 29.9774 85.4183 29.6713 84.0316 29.079C82.6657 28.4987 81.4215 27.665 80.3648 26.622C79.309 25.569 78.456 24.3304 77.8483 22.968C77.226 21.5496 76.9047 20.0172 76.9047 18.468C76.9047 16.9187 77.226 15.3864 77.8483 13.968C78.4536 12.6016 79.3069 11.3595 80.3648 10.305C81.4194 9.25698 82.6639 8.42002 84.0316 7.83897C85.4146 7.23506 86.9087 6.92846 88.4175 6.93897C89.9617 6.92108 91.4925 7.22768 92.9111 7.83897C94.2888 8.41875 95.5381 9.26605 96.587 10.332C98.7437 12.5431 99.9502 15.512 99.9482 18.603C99.9593 20.1226 99.6532 21.6277 99.0495 23.022C98.151 25.0903 96.6686 26.8506 94.7845 28.0866C92.9004 29.3225 90.6968 29.9803 88.4444 29.979H88.4175ZM88.4175 23.49C89.02 23.4912 89.6154 23.359 90.161 23.103C90.7111 22.8594 91.2087 22.5109 91.6259 22.077C92.0395 21.6148 92.3599 21.0769 92.5696 20.493C92.8243 19.852 92.9495 19.1668 92.9381 18.477C92.9455 17.7891 92.8267 17.1058 92.5876 16.461C92.3828 15.8724 92.0721 15.3264 91.6709 14.85C91.2599 14.4076 90.7689 14.0472 90.2239 13.788C89.6617 13.5246 89.0471 13.3923 88.4264 13.401C87.806 13.3948 87.192 13.527 86.629 13.788C86.0867 14.043 85.6009 14.4041 85.2 14.85C84.7855 15.3248 84.4598 15.8705 84.2383 16.461C83.7712 17.7643 83.7712 19.1897 84.2383 20.493C84.4573 21.0805 84.7902 21.6189 85.218 22.077C85.6275 22.5118 86.1194 22.8606 86.6649 23.103C87.2049 23.357 87.7939 23.4891 88.3905 23.49H88.4175Z" fill="#0FA3D1"/>
<path d="M88.4175 29.979C86.9099 29.9774 85.4183 29.6713 84.0316 29.079C82.6657 28.4987 81.4215 27.665 80.3648 26.622C79.309 25.569 78.456 24.3304 77.8483 22.968C77.226 21.5496 76.9047 20.0172 76.9047 18.468C76.9047 16.9187 77.226 15.3864 77.8483 13.968C78.4536 12.6016 79.3069 11.3595 80.3648 10.305C81.4194 9.25698 82.6639 8.42002 84.0316 7.83897C85.4146 7.23506 86.9087 6.92846 88.4175 6.93897C89.9617 6.92108 91.4925 7.22768 92.9111 7.83897C94.2888 8.41875 95.5381 9.26605 96.587 10.332C98.7437 12.5431 99.9502 15.512 99.9482 18.603C99.9593 20.1226 99.6532 21.6277 99.0495 23.022C98.151 25.0903 96.6686 26.8506 94.7845 28.0866C92.9004 29.3225 90.6968 29.9803 88.4444 29.979H88.4175ZM88.4175 23.49C89.02 23.4912 89.6154 23.359 90.161 23.103C90.7111 22.8594 91.2087 22.5109 91.6259 22.077C92.0395 21.6148 92.3599 21.0769 92.5696 20.493C92.8243 19.852 92.9495 19.1668 92.9381 18.477C92.9455 17.7891 92.8267 17.1058 92.5876 16.461C92.3828 15.8724 92.0721 15.3264 91.6709 14.85C91.2599 14.4076 90.7689 14.0472 90.2239 13.788C89.6617 13.5246 89.0471 13.3923 88.4264 13.401C87.806 13.3948 87.192 13.527 86.629 13.788C86.0867 14.043 85.6009 14.4041 85.2 14.85C84.7855 15.3248 84.4598 15.8705 84.2383 16.461C83.7712 17.7643 83.7712 19.1897 84.2383 20.493C84.4573 21.0805 84.7902 21.6189 85.218 22.077C85.6275 22.5118 86.1194 22.8606 86.6649 23.103C87.2049 23.357 87.7939 23.4891 88.3905 23.49H88.4175Z" fill="#0FA3D1"/>
<path d="M110.293 29.4479H103.48V7.42494H111.443C112.651 7.42322 113.856 7.54993 115.038 7.80294C116.099 8.03509 117.109 8.45574 118.022 9.04494C118.869 9.6085 119.561 10.3759 120.035 11.2769C120.558 12.3033 120.812 13.4462 120.772 14.5979C120.769 15.4958 120.617 16.387 120.323 17.2349C120.049 18.1035 119.5 18.8589 118.759 19.3859C119.561 19.946 120.17 20.7416 120.502 21.6629C120.789 22.6937 120.922 23.7612 120.898 24.8309V29.4479H113.924V24.8309C113.993 24.1378 113.839 23.4405 113.483 22.8419C113.284 22.6422 113.042 22.4899 112.776 22.3965C112.51 22.303 112.227 22.2707 111.946 22.3019H110.248V17.3699H111.946C112.201 17.3976 112.458 17.3727 112.702 17.2969C112.946 17.221 113.172 17.0958 113.366 16.9289C113.668 16.5535 113.816 16.0774 113.78 15.5969C113.802 15.3551 113.772 15.1114 113.693 14.8818C113.614 14.6522 113.487 14.4419 113.321 14.2649C112.753 13.9185 112.086 13.7728 111.425 13.8509H110.239V29.4479H110.293Z" fill="#0FA3D1"/>
<path d="M110.293 29.4479H103.48V7.42494H111.443C112.651 7.42322 113.856 7.54993 115.038 7.80294C116.099 8.03509 117.109 8.45574 118.022 9.04494C118.869 9.6085 119.561 10.3759 120.035 11.2769C120.558 12.3033 120.812 13.4462 120.772 14.5979C120.769 15.4958 120.617 16.387 120.323 17.2349C120.049 18.1035 119.5 18.8589 118.759 19.3859C119.561 19.946 120.17 20.7416 120.502 21.6629C120.789 22.6937 120.922 23.7612 120.898 24.8309V29.4479H113.924V24.8309C113.993 24.1378 113.839 23.4405 113.483 22.8419C113.284 22.6422 113.042 22.4899 112.776 22.3965C112.51 22.303 112.227 22.2707 111.946 22.3019H110.248V17.3699H111.946C112.201 17.3976 112.458 17.3727 112.702 17.2969C112.946 17.221 113.172 17.0958 113.366 16.9289C113.668 16.5535 113.816 16.0774 113.78 15.5969C113.802 15.3551 113.772 15.1114 113.693 14.8818C113.614 14.6522 113.487 14.4419 113.321 14.2649C112.753 13.9185 112.086 13.7728 111.425 13.8509H110.239V29.4479H110.293Z" fill="#0FA3D1"/>
<path d="M110.293 29.4479H103.48V7.42494H111.443C112.651 7.42322 113.856 7.54993 115.038 7.80294C116.099 8.03509 117.109 8.45574 118.022 9.04494C118.869 9.6085 119.561 10.3759 120.035 11.2769C120.558 12.3033 120.812 13.4462 120.772 14.5979C120.769 15.4958 120.617 16.387 120.323 17.2349C120.049 18.1035 119.5 18.8589 118.759 19.3859C119.561 19.946 120.17 20.7416 120.502 21.6629C120.789 22.6937 120.922 23.7612 120.898 24.8309V29.4479H113.924V24.8309C113.993 24.1378 113.839 23.4405 113.483 22.8419C113.284 22.6422 113.042 22.4899 112.776 22.3965C112.51 22.303 112.227 22.2707 111.946 22.3019H110.248V17.3699H111.946C112.201 17.3976 112.458 17.3727 112.702 17.2969C112.946 17.221 113.172 17.0958 113.366 16.9289C113.668 16.5535 113.816 16.0774 113.78 15.5969C113.802 15.3551 113.772 15.1114 113.693 14.8818C113.614 14.6522 113.487 14.4419 113.321 14.2649C112.753 13.9185 112.086 13.7728 111.425 13.8509H110.239V29.4479H110.293Z" fill="#0FA3D1"/>
<path d="M140.319 7.42505V13.824H135.556V29.448H128.672V13.824H123.917V7.42505H140.319Z" fill="#0FA3D1"/>
<path d="M140.319 7.42505V13.824H135.556V29.448H128.672V13.824H123.917V7.42505H140.319Z" fill="#0FA3D1"/>
<path d="M140.319 7.42505V13.824H135.556V29.448H128.672V13.824H123.917V7.42505H140.319Z" fill="#0FA3D1"/>
</g>
<defs>
<clipPath id="clip0_6_97">
<rect width="213" height="36" fill="white"/>
</clipPath>
</defs>
</svg>
