<svg width="105" height="104" viewBox="0 0 105 104" fill="none" xmlns="http://www.w3.org/2000/svg">
<g clip-path="url(#clip0_18_38)">
<path d="M3.03819 67.2182C9.41474 88.4881 29.1398 103.985 52.4849 103.985C80.9896 103.985 104.098 80.8768 104.098 52.3722C104.098 23.8671 80.9896 0.759033 52.4849 0.759033C25.1317 0.759033 2.75022 22.0374 0.982529 48.9431C4.32259 54.5519 5.62594 58.0208 3.03868 67.2182H3.03819Z" fill="url(#paint0_linear_18_38)"/>
<path d="M49.8262 39.4454C49.8262 39.5322 49.8262 39.619 49.8307 39.7005L37.2007 58.0474C35.1548 57.9543 33.1018 58.3132 31.1551 59.1151C30.297 59.4651 29.4929 59.8948 28.7384 60.391L1.00507 48.9741C1.00529 48.9741 0.363341 59.5315 3.0377 67.3998L22.6436 75.4895C23.628 79.8888 26.646 83.7476 31.0984 85.6039C38.3832 88.6475 46.7826 85.1786 49.813 77.8907C50.6015 75.9857 50.9693 73.9876 50.9161 71.994L68.9874 59.0796C69.1336 59.0841 69.2842 59.0885 69.4304 59.0885C80.2448 59.0885 89.0345 50.2722 89.0345 39.4454C89.0345 28.6177 80.2448 19.8093 69.4304 19.8093C58.6204 19.8093 49.8262 28.6177 49.8262 39.4454ZM46.7959 76.6237C44.4505 82.2546 37.9796 84.9261 32.3549 82.5824C29.76 81.5014 27.8009 79.5211 26.6708 77.1597L33.0526 79.8046C37.2007 81.5325 41.9598 79.5654 43.6841 75.4186C45.4137 71.2674 43.4515 66.5004 39.3056 64.7726L32.7084 62.0391C35.2541 61.0733 38.1479 61.0378 40.8518 62.1631C43.5777 63.2973 45.6928 65.4327 46.8136 68.1618C47.9345 70.8908 47.9301 73.9035 46.7959 76.6237ZM69.4304 52.5316C62.2311 52.5316 56.3698 46.6615 56.3698 39.4454C56.3698 32.235 62.2311 26.3631 69.4304 26.3631C76.6341 26.3631 82.4954 32.235 82.4954 39.4454C82.4954 46.6615 76.6341 52.5316 69.4304 52.5316ZM59.6438 39.4254C59.6438 33.997 64.0387 29.5941 69.4525 29.5941C74.8708 29.5941 79.2657 33.997 79.2657 39.4254C79.2657 44.8543 74.8708 49.2532 69.4525 49.2532C64.0387 49.2532 59.6438 44.8543 59.6438 39.4254Z" fill="white"/>
</g>
<defs>
<linearGradient id="paint0_linear_18_38" x1="52.5403" y1="0.759033" x2="52.5403" y2="103.985" gradientUnits="userSpaceOnUse">
<stop stop-color="#111D2E"/>
<stop offset="0.21248" stop-color="#051839"/>
<stop offset="0.40695" stop-color="#0A1B48"/>
<stop offset="0.5811" stop-color="#132E62"/>
<stop offset="0.7376" stop-color="#144B7E"/>
<stop offset="0.87279" stop-color="#136497"/>
<stop offset="1" stop-color="#1387B8"/>
</linearGradient>
<clipPath id="clip0_18_38">
<rect width="103.226" height="103.226" fill="white" transform="translate(0.871277 0.759033)"/>
</clipPath>
</defs>
</svg>
