<svg width="104" height="80" viewBox="0 0 104 80" fill="none" xmlns="http://www.w3.org/2000/svg">
<path d="M88.0979 6.69998C81.3658 3.57 74.1675 1.29526 66.6419 0C65.7177 1.66047 64.6379 3.89385 63.8934 5.67049C55.8935 4.47497 47.9671 4.47497 40.1144 5.67049C39.37 3.89385 38.2657 1.66047 37.3332 0C29.7995 1.29526 22.5929 3.57836 15.8608 6.71656C2.28212 27.1068 -1.39885 46.9905 0.441639 66.592C9.44776 73.2752 18.1758 77.3351 26.7565 79.9918C28.8751 77.0943 30.7646 74.0142 32.3924 70.768C29.2923 69.5974 26.323 68.1528 23.5173 66.4758C24.2616 65.9278 24.9897 65.3549 25.6931 64.7654C42.8055 72.719 61.3986 72.719 78.3065 64.7654C79.0182 65.3549 79.7461 65.9278 80.4823 66.4758C77.6684 68.1611 74.691 69.6056 71.5908 70.7764C73.2186 74.0142 75.1 77.1026 77.2268 80C85.8157 77.3433 94.5518 73.2836 103.558 66.592C105.718 43.8689 99.8689 24.1678 88.0979 6.69998ZM34.7238 54.5373C29.5868 54.5373 25.3741 49.7717 25.3741 43.9685C25.3741 38.1653 29.4968 33.3915 34.7238 33.3915C39.9508 33.3915 44.1634 38.1569 44.0735 43.9685C44.0816 49.7717 39.9508 54.5373 34.7238 54.5373ZM69.2759 54.5373C64.1389 54.5373 59.9262 49.7717 59.9262 43.9685C59.9262 38.1653 64.0488 33.3915 69.2759 33.3915C74.5028 33.3915 78.7155 38.1569 78.6256 43.9685C78.6256 49.7717 74.5028 54.5373 69.2759 54.5373Z" fill="#5865F2"/>
</svg>
